<?xml version="1.0" encoding="UTF-8"?>
<svg id="Layer_1" xmlns="http://www.w3.org/2000/svg" version="1.1" xmlns:xlink="http://www.w3.org/1999/xlink" viewBox="0 0 256 256">
  <!-- Generator: Adobe Illustrator 29.6.1, SVG Export Plug-In . SVG Version: 2.1.1 Build 9)  -->
  <defs>
    <style>
      .st0 {
        fill: url(#radial-gradient4);
        fill-opacity: .5;
      }

      .st1 {
        fill: url(#linear-gradient2);
      }

      .st2 {
        fill: #fff;
      }

      .st3 {
        mask: url(#mask);
      }

      .st4 {
        fill: url(#linear-gradient1);
      }

      .st5 {
        fill: url(#radial-gradient1);
        fill-opacity: .3;
      }

      .st6 {
        fill: url(#radial-gradient2);
        fill-opacity: .4;
      }

      .st7 {
        fill: url(#linear-gradient3);
      }

      .st8 {
        fill: url(#radial-gradient);
        fill-opacity: .7;
      }

      .st9 {
        fill: url(#radial-gradient3);
      }

      .st10 {
        fill: url(#linear-gradient);
      }
    </style>
    <mask id="mask" x="16" y="0" width="256" height="256" maskUnits="userSpaceOnUse">
      <g id="bh">
        <path class="st2" d="M272,0H16v256h256V0Z"/>
      </g>
    </mask>
    <linearGradient id="linear-gradient" x1="240" y1="50" x2="48" y2="50" gradientTransform="translate(0 258) scale(1 -1)" gradientUnits="userSpaceOnUse">
      <stop offset="0" stop-color="#9c1d57"/>
      <stop offset=".5" stop-color="#a61e29"/>
      <stop offset="1" stop-color="#8b1822"/>
    </linearGradient>
    <radialGradient id="radial-gradient" cx="-805.2" cy="685.9" fx="-805.2" fy="685.9" r="5.3" gradientTransform="translate(-31731.4 14654) rotate(90) scale(18 -46.5)" gradientUnits="userSpaceOnUse">
      <stop offset=".2" stop-color="#551319"/>
      <stop offset=".6" stop-color="#551319" stop-opacity="0"/>
    </radialGradient>
    <linearGradient id="linear-gradient1" x1="240" y1="114" x2="48" y2="114" gradientTransform="translate(0 258) scale(1 -1)" gradientUnits="userSpaceOnUse">
      <stop offset="0" stop-color="#ee4d9b"/>
      <stop offset=".5" stop-color="#e82e43"/>
      <stop offset="1" stop-color="#ca2034"/>
    </linearGradient>
    <radialGradient id="radial-gradient1" cx="-808.1" cy="685.9" fx="-808.1" fy="685.9" r="5.3" gradientTransform="translate(-31731.4 14642) rotate(90) scale(18 -46.5)" gradientUnits="userSpaceOnUse">
      <stop offset=".2" stop-color="#551319"/>
      <stop offset=".8" stop-color="#551319" stop-opacity="0"/>
    </radialGradient>
    <linearGradient id="linear-gradient2" x1="240" y1="178" x2="48" y2="178" gradientTransform="translate(0 258) scale(1 -1)" gradientUnits="userSpaceOnUse">
      <stop offset="0" stop-color="#f080b3"/>
      <stop offset=".5" stop-color="#f15c6e"/>
      <stop offset="1" stop-color="#ef4356"/>
    </linearGradient>
    <radialGradient id="radial-gradient2" cx="-811" cy="685.9" fx="-811" fy="685.9" r="5.3" gradientTransform="translate(-31731.4 14630) rotate(90) scale(18 -46.5)" gradientUnits="userSpaceOnUse">
      <stop offset=".2" stop-color="#f59db1"/>
      <stop offset=".6" stop-color="#f59db1" stop-opacity="0"/>
    </radialGradient>
    <linearGradient id="linear-gradient3" x1="154.9" y1="266.9" x2="130.6" y2="175.9" gradientTransform="translate(0 258) scale(1 -1)" gradientUnits="userSpaceOnUse">
      <stop offset="0" stop-color="#f080b3"/>
      <stop offset=".9" stop-color="#f59db1"/>
    </linearGradient>
    <radialGradient id="radial-gradient3" cx="-803.2" cy="675.3" fx="-803.2" fy="675.3" r="5.3" gradientTransform="translate(2575 29687.7) rotate(45) scale(28.3 -28.3)" gradientUnits="userSpaceOnUse">
      <stop offset="0" stop-color="#e82e59"/>
      <stop offset=".9" stop-color="#aa1e2e"/>
    </radialGradient>
    <radialGradient id="radial-gradient4" cx="-796.6" cy="714.4" fx="-796.6" fy="714.4" r="5.3" gradientTransform="translate(-11317.5 11334) rotate(90) scale(14 -15.9)" gradientUnits="userSpaceOnUse">
      <stop offset=".6" stop-color="#f05879" stop-opacity="0"/>
      <stop offset="1" stop-color="#f59db1"/>
    </radialGradient>
  </defs>
  <g class="st3">
    <g>
      <path class="st10" d="M240,160v64c0,17.7-43,32-96,32s-96-14.3-96-32v-64h192Z"/>
      <path class="st8" d="M240,160v64c0,17.7-43,32-96,32s-96-14.3-96-32v-64h192Z"/>
      <path class="st4" d="M240,96v64c0,17.7-43,32-96,32s-96-14.3-96-32v-64h192Z"/>
      <path class="st5" d="M240,96v64c0,17.7-43,32-96,32s-96-14.3-96-32v-64h192Z"/>
      <path class="st1" d="M240,32v64c0,17.7-43,32-96,32s-96-14.3-96-32V32h192Z"/>
      <path class="st6" d="M240,32v64c0,17.7-43,32-96,32s-96-14.3-96-32V32h192Z"/>
      <path class="st7" d="M144,64c-53,0-96-14.3-96-32S91,0,144,0s96,14.3,96,32-43,32-96,32Z"/>
      <path class="st9" d="M101.3,117.3H37.3c-11.8,0-21.3,9.6-21.3,21.3v64c0,11.8,9.6,21.3,21.3,21.3h64c11.8,0,21.3-9.6,21.3-21.3v-64c0-11.8-9.6-21.3-21.3-21.3Z"/>
      <path class="st0" d="M101.3,117.3H37.3c-11.8,0-21.3,9.6-21.3,21.3v64c0,11.8,9.6,21.3,21.3,21.3h64c11.8,0,21.3-9.6,21.3-21.3v-64c0-11.8-9.6-21.3-21.3-21.3Z"/>
      <path class="st2" d="M38.2,202.7l22.9-64h17.1l22.4,64h-15.1l-4.4-12.8h-23.4l-4.3,12.8h-15ZM60.8,178.1h16.7l-6.8-22.4c-.2-.8-.5-1.5-.7-2.2-.2-.7-.4-1.5-.6-2.4h-.4c-.2.7-.4,1.5-.6,2.2s-.4,1.5-.7,2.3l-6.9,22.4h0Z"/>
    </g>
  </g>
</svg>