<?xml version="1.0" encoding="UTF-8"?>
<svg id="Layer_1" xmlns="http://www.w3.org/2000/svg" version="1.1" xmlns:xlink="http://www.w3.org/1999/xlink" viewBox="0 0 256 256">
  <!-- Generator: Adobe Illustrator 29.6.1, SVG Export Plug-In . SVG Version: 2.1.1 Build 9)  -->
  <defs>
    <style>
      .st0 {
        mask: url(#mask-1);
      }

      .st1 {
        fill: #a182bb;
      }

      .st2 {
        fill: #6850a1;
      }

      .st3 {
        fill: url(#linear-gradient2);
        fill-opacity: .3;
      }

      .st4 {
        fill: #fff;
      }

      .st5 {
        mask: url(#mask);
      }

      .st6 {
        fill: url(#radial-gradient2);
      }

      .st6, .st7, .st8, .st9 {
        fill-opacity: .4;
      }

      .st7 {
        fill: url(#linear-gradient6);
      }

      .st10 {
        fill: url(#linear-gradient3);
      }

      .st10, .st11 {
        fill-opacity: .2;
      }

      .st8 {
        fill: url(#linear-gradient);
      }

      .st12 {
        fill: url(#linear-gradient4);
      }

      .st13 {
        fill: url(#radial-gradient1);
      }

      .st13, .st14 {
        fill-opacity: .6;
      }

      .st15 {
        fill: url(#linear-gradient1);
        fill-opacity: .2;
      }

      .st11, .st16 {
        fill: #8a6baf;
      }

      .st16 {
        fill-opacity: .3;
      }

      .st14 {
        fill: url(#linear-gradient8);
      }

      .st17 {
        fill: url(#linear-gradient5);
        fill-opacity: .8;
      }

      .st18 {
        fill: #7a5ea8;
      }

      .st19 {
        fill: url(#radial-gradient3);
      }

      .st20 {
        fill: url(#radial-gradient);
        fill-opacity: .9;
      }

      .st9 {
        fill: url(#linear-gradient7);
      }
    </style>
    <mask id="mask" x="-6" y="-.8" width="268" height="268" maskUnits="userSpaceOnUse">
      <g id="ck">
        <path class="st4" d="M262-.8H-6v268h268V-.8Z"/>
      </g>
    </mask>
    <mask id="mask-1" x="-6" y="-.8" width="268" height="268" maskUnits="userSpaceOnUse">
      <g id="ct">
        <path class="st4" d="M262-.8H-6v268h268V-.8Z"/>
      </g>
    </mask>
    <radialGradient id="radial-gradient" cx="-852.1" cy="693.1" fx="-852.1" fy="693.1" r="11.2" gradientTransform="translate(-23085.1 -6526.4) rotate(150.9) scale(20.2 -24.4)" gradientUnits="userSpaceOnUse">
      <stop offset=".6" stop-color="#7a5ea8"/>
      <stop offset="1" stop-color="#553896"/>
    </radialGradient>
    <radialGradient id="radial-gradient1" cx="-861" cy="685.7" fx="-861" fy="685.7" r="11.2" gradientTransform="translate(-25464 -18871.7) rotate(154.9) scale(17.8 -40.8)" gradientUnits="userSpaceOnUse">
      <stop offset=".1" stop-color="#c196c5"/>
      <stop offset=".7" stop-color="#ae7cb6" stop-opacity="0"/>
    </radialGradient>
    <radialGradient id="radial-gradient2" cx="-839.3" cy="695.1" fx="-839.3" fy="695.1" r="11.2" gradientTransform="translate(-21891.7 -3736.6) rotate(124.9) scale(11.4 -29)" gradientUnits="userSpaceOnUse">
      <stop offset="0" stop-color="#fcc7a4"/>
      <stop offset=".8" stop-color="#b174b1" stop-opacity="0"/>
    </radialGradient>
    <linearGradient id="linear-gradient" x1="126.9" y1="65.6" x2="119.3" y2="22.3" gradientTransform="translate(0 258) scale(1 -1)" gradientUnits="userSpaceOnUse">
      <stop offset="0" stop-color="#39256d"/>
      <stop offset="1" stop-color="#6850a1" stop-opacity="0"/>
    </linearGradient>
    <linearGradient id="linear-gradient1" x1="128" y1="59.2" x2="128" y2="-5" gradientTransform="translate(0 258) scale(1 -1)" gradientUnits="userSpaceOnUse">
      <stop offset="0" stop-color="#7856a3" stop-opacity="0"/>
      <stop offset=".8" stop-color="#9571b1"/>
    </linearGradient>
    <linearGradient id="linear-gradient2" x1="72.2" y1="58.9" x2="5.2" y2="58.4" xlink:href="#linear-gradient1"/>
    <linearGradient id="linear-gradient3" x1="146.7" y1="25.1" x2="250" y2="-57.3" xlink:href="#linear-gradient1"/>
    <linearGradient id="linear-gradient4" x1="72.2" y1="139.9" x2="5.2" y2="139.9" gradientTransform="translate(0 258) scale(1 -1)" gradientUnits="userSpaceOnUse">
      <stop offset="0" stop-color="#a183bc" stop-opacity="0"/>
      <stop offset=".8" stop-color="#d8b5d6"/>
    </linearGradient>
    <linearGradient id="linear-gradient5" x1="169.4" y1="139.9" x2="250.8" y2="139.9" gradientTransform="translate(0 258) scale(1 -1)" gradientUnits="userSpaceOnUse">
      <stop offset="0" stop-color="#a182bb" stop-opacity="0"/>
      <stop offset=".8" stop-color="#d8b5d6"/>
    </linearGradient>
    <radialGradient id="radial-gradient3" cx="-836.9" cy="699.4" fx="-836.9" fy="699.4" r="11.2" gradientTransform="translate(-21645.6 -278.3) rotate(121.9) scale(13.6 -26.7)" xlink:href="#radial-gradient2"/>
    <linearGradient id="linear-gradient6" x1="130.8" y1="155.9" x2="127.4" y2="77.6" gradientTransform="translate(0 258) scale(1 -1)" gradientUnits="userSpaceOnUse">
      <stop offset="0" stop-color="#5e499e"/>
      <stop offset="1" stop-color="#442c84" stop-opacity="0"/>
    </linearGradient>
    <linearGradient id="linear-gradient7" x1="183.8" y1="90.7" x2="250.8" y2="90.7" gradientTransform="translate(0 258) scale(1 -1)" gradientUnits="userSpaceOnUse">
      <stop offset="0" stop-color="#7d60a9" stop-opacity="0"/>
      <stop offset=".8" stop-color="#d8b5d6"/>
    </linearGradient>
    <linearGradient id="linear-gradient8" x1="72.2" y1="90.7" x2="5.2" y2="90.7" gradientTransform="translate(0 258) scale(1 -1)" gradientUnits="userSpaceOnUse">
      <stop offset="0" stop-color="#7a5da8" stop-opacity="0"/>
      <stop offset=".8" stop-color="#d8b5d6"/>
    </linearGradient>
  </defs>
  <g class="st5">
    <g class="st0">
      <g>
        <path class="st2" d="M8.8,80.4c2.6,12.4,14.8,20.5,27.2,18.1l189.4-36.8c13.6-2.6,22.3-15.8,19.5-29.4l-2.5-12c-2.9-13.6-16.2-22.4-29.9-19.8L25.3,36.9c-13.6,2.6-22.3,15.8-19.5,29.4l3,14.1Z"/>
        <path class="st20" d="M8.8,80.4c2.6,12.4,14.8,20.5,27.2,18.1l189.4-36.8c13.6-2.6,22.3-15.8,19.5-29.4l-2.5-12c-2.9-13.6-16.2-22.4-29.9-19.8L25.3,36.9c-13.6,2.6-22.3,15.8-19.5,29.4l3,14.1Z"/>
        <path class="st13" d="M8.8,80.4c2.6,12.4,14.8,20.5,27.2,18.1l189.4-36.8c13.6-2.6,22.3-15.8,19.5-29.4l-2.5-12c-2.9-13.6-16.2-22.4-29.9-19.8L25.3,36.9c-13.6,2.6-22.3,15.8-19.5,29.4l3,14.1Z"/>
        <path class="st6" d="M8.8,80.4c2.6,12.4,14.8,20.5,27.2,18.1l189.4-36.8c13.6-2.6,22.3-15.8,19.5-29.4l-2.5-12c-2.9-13.6-16.2-22.4-29.9-19.8L25.3,36.9c-13.6,2.6-22.3,15.8-19.5,29.4l3,14.1Z"/>
        <path class="st2" d="M5.2,222.5c0,18.5,15,33.5,33.5,33.5h184.2c15.4,0,27.9-12.5,27.9-27.9v-17.5c0-15.4-12.5-27.9-27.9-27.9H46.5c-22.8,0-41.3-18.5-41.3-41.3v81.1h0Z"/>
        <path class="st11" d="M5.2,222.5c0,18.5,15,33.5,33.5,33.5h184.2c15.4,0,27.9-12.5,27.9-27.9v-17.5c0-15.4-12.5-27.9-27.9-27.9H46.5c-22.8,0-41.3-18.5-41.3-41.3v81.1h0Z"/>
        <path class="st11" d="M5.2,222.5c0,18.5,15,33.5,33.5,33.5h184.2c15.4,0,27.9-12.5,27.9-27.9v-17.5c0-15.4-12.5-27.9-27.9-27.9H46.5c-22.8,0-41.3-18.5-41.3-41.3v81.1h0Z"/>
        <path class="st8" d="M5.2,222.5c0,18.5,15,33.5,33.5,33.5h184.2c15.4,0,27.9-12.5,27.9-27.9v-17.5c0-15.4-12.5-27.9-27.9-27.9H46.5c-22.8,0-41.3-18.5-41.3-41.3v81.1h0Z"/>
        <path class="st15" d="M5.2,222.5c0,18.5,15,33.5,33.5,33.5h184.2c15.4,0,27.9-12.5,27.9-27.9v-17.5c0-15.4-12.5-27.9-27.9-27.9H46.5c-22.8,0-41.3-18.5-41.3-41.3v81.1h0Z"/>
        <path class="st3" d="M5.2,222.5c0,18.5,15,33.5,33.5,33.5h184.2c15.4,0,27.9-12.5,27.9-27.9v-17.5c0-15.4-12.5-27.9-27.9-27.9H46.5c-22.8,0-41.3-18.5-41.3-41.3v81.1h0Z"/>
        <path class="st10" d="M5.2,222.5c0,18.5,15,33.5,33.5,33.5h184.2c15.4,0,27.9-12.5,27.9-27.9v-17.5c0-15.4-12.5-27.9-27.9-27.9H46.5c-22.8,0-41.3-18.5-41.3-41.3v81.1h0Z"/>
        <path class="st1" d="M5.2,118.7c0,14.2,11.5,25.6,25.6,25.6h189.3c17,0,30.7,13.7,30.7,30.7v11.8-70.4c0-15.4-12.5-27.9-27.9-27.9H33.1c-15.4,0-27.9-12.5-27.9-27.9v-11.2,69.3h0Z"/>
        <path class="st12" d="M5.2,118.7c0,14.2,11.5,25.6,25.6,25.6h189.3c17,0,30.7,13.7,30.7,30.7v11.8-70.4c0-15.4-12.5-27.9-27.9-27.9H33.1c-15.4,0-27.9-12.5-27.9-27.9v-11.2,69.3h0Z"/>
        <path class="st17" d="M5.2,118.7c0,14.2,11.5,25.6,25.6,25.6h189.3c17,0,30.7,13.7,30.7,30.7v11.8-70.4c0-15.4-12.5-27.9-27.9-27.9H33.1c-15.4,0-27.9-12.5-27.9-27.9v-11.2,69.3h0Z"/>
        <path class="st19" d="M5.2,118.7c0,14.2,11.5,25.6,25.6,25.6h189.3c17,0,30.7,13.7,30.7,30.7v11.8-70.4c0-15.4-12.5-27.9-27.9-27.9H33.1c-15.4,0-27.9-12.5-27.9-27.9v-11.2,69.3h0Z"/>
        <path class="st18" d="M5.2,169.5c0,17,13.7,30.7,30.7,30.7h187c15.4,0,27.9,12.5,27.9,27.9v3.5-59.5c0-15.4-12.5-27.9-27.9-27.9H35.9c-17,0-30.7-13.7-30.7-30.7v-10.6,66.5Z"/>
        <path class="st16" d="M5.2,169.5c0,17,13.7,30.7,30.7,30.7h187c15.4,0,27.9,12.5,27.9,27.9v3.5-59.5c0-15.4-12.5-27.9-27.9-27.9H35.9c-17,0-30.7-13.7-30.7-30.7v-10.6,66.5Z"/>
        <path class="st7" d="M5.2,169.5c0,17,13.7,30.7,30.7,30.7h187c15.4,0,27.9,12.5,27.9,27.9v3.5-59.5c0-15.4-12.5-27.9-27.9-27.9H35.9c-17,0-30.7-13.7-30.7-30.7v-10.6,66.5Z"/>
        <path class="st9" d="M5.2,169.5c0,17,13.7,30.7,30.7,30.7h187c15.4,0,27.9,12.5,27.9,27.9v3.5-59.5c0-15.4-12.5-27.9-27.9-27.9H35.9c-17,0-30.7-13.7-30.7-30.7v-10.6,66.5Z"/>
        <path class="st14" d="M5.2,169.5c0,17,13.7,30.7,30.7,30.7h187c15.4,0,27.9,12.5,27.9,27.9v3.5-59.5c0-15.4-12.5-27.9-27.9-27.9H35.9c-17,0-30.7-13.7-30.7-30.7v-10.6,66.5Z"/>
      </g>
    </g>
  </g>
</svg>