<?xml version="1.0" encoding="UTF-8"?>
<svg id="Layer_1" xmlns="http://www.w3.org/2000/svg" version="1.1" xmlns:xlink="http://www.w3.org/1999/xlink" viewBox="0 0 256 256">
  <!-- Generator: Adobe Illustrator 29.6.1, SVG Export Plug-In . SVG Version: 2.1.1 Build 9)  -->
  <defs>
    <style>
      .st0 {
        fill: url(#linear-gradient2);
      }

      .st1 {
        fill: #fff;
      }

      .st2 {
        mask: url(#mask);
      }

      .st3 {
        fill: url(#radial-gradient1);
        fill-opacity: .7;
      }

      .st4 {
        fill: url(#radial-gradient);
      }

      .st5 {
        fill: url(#radial-gradient5);
      }

      .st5, .st6 {
        fill-opacity: .3;
      }

      .st7 {
        fill: url(#linear-gradient3);
      }

      .st8 {
        fill: url(#radial-gradient2);
      }

      .st6 {
        fill: url(#linear-gradient1);
      }

      .st9 {
        fill: url(#radial-gradient4);
      }

      .st10 {
        fill: url(#radial-gradient3);
      }

      .st11 {
        fill: url(#linear-gradient);
      }
    </style>
    <mask id="mask" x="5.8" y="-11.6" width="279.3" height="279.3" maskUnits="userSpaceOnUse">
      <g id="ak">
        <path class="st1" d="M285.1-11.6H5.8v279.3h279.3V-11.6Z"/>
      </g>
    </mask>
    <radialGradient id="radial-gradient" cx="-4.1" cy="258.4" fx="-4.1" fy="258.4" r="5.8" gradientTransform="translate(7512.3 -6677.4) rotate(-132.6) scale(50.2 -38.9)" gradientUnits="userSpaceOnUse">
      <stop offset="0" stop-color="#389645"/>
      <stop offset=".4" stop-color="#2c7d3d"/>
      <stop offset=".7" stop-color="#1d572b"/>
    </radialGradient>
    <radialGradient id="radial-gradient1" cx="-2.9" cy="260.8" fx="-2.9" fy="260.8" r="5.8" gradientTransform="translate(2966.4 -2821.6) rotate(-135) scale(20.3 -15.7)" gradientUnits="userSpaceOnUse">
      <stop offset="0" stop-color="#183c1d"/>
      <stop offset="1" stop-color="#1c4a24" stop-opacity="0"/>
    </radialGradient>
    <linearGradient id="linear-gradient" x1="40.7" y1="108.2" x2="143.2" y2="108.2" gradientTransform="translate(0 258) scale(1 -1)" gradientUnits="userSpaceOnUse">
      <stop offset="0" stop-color="#65bf7a"/>
      <stop offset=".3" stop-color="#4ba647"/>
    </linearGradient>
    <linearGradient id="linear-gradient1" x1="107.6" y1="171.2" x2="107.6" y2="84" gradientTransform="translate(0 258) scale(1 -1)" gradientUnits="userSpaceOnUse">
      <stop offset="0" stop-color="#2c8641"/>
      <stop offset=".5" stop-color="#4ba647" stop-opacity="0"/>
    </linearGradient>
    <linearGradient id="linear-gradient2" x1="46.9" y1="152.6" x2="165.2" y2="255.1" gradientTransform="translate(0 258) scale(1 -1)" gradientUnits="userSpaceOnUse">
      <stop offset="0" stop-color="#73c054"/>
      <stop offset="1" stop-color="#94cb6e"/>
    </linearGradient>
    <radialGradient id="radial-gradient2" cx="-4.6" cy="258.8" fx="-4.6" fy="258.8" r="5.8" gradientTransform="translate(113.2 -5985.2) rotate(-180) scale(11 -23.3)" gradientUnits="userSpaceOnUse">
      <stop offset=".3" stop-color="#50b448"/>
      <stop offset="1" stop-color="#79c263" stop-opacity="0"/>
    </radialGradient>
    <linearGradient id="linear-gradient3" x1="98.4" y1="194" x2="40.7" y2="194" gradientTransform="translate(0 258) scale(1 -1)" gradientUnits="userSpaceOnUse">
      <stop offset=".2" stop-color="#c1db78" stop-opacity="0"/>
      <stop offset="1" stop-color="#d1e396"/>
    </linearGradient>
    <radialGradient id="radial-gradient3" cx="-5.1" cy="255.8" fx="-5.1" fy="255.8" r="5.8" gradientTransform="translate(4556 -5203.8) rotate(-139.9) scale(26.5 -26.7)" gradientUnits="userSpaceOnUse">
      <stop offset=".4" stop-color="#8cc869"/>
      <stop offset="1" stop-color="#cfe07b"/>
    </radialGradient>
    <radialGradient id="radial-gradient4" cx="1.6" cy="255.6" fx="1.6" fy="255.6" r="5.8" gradientTransform="translate(-14577.2 14635.2) rotate(45) scale(28.3 -80.5)" gradientUnits="userSpaceOnUse">
      <stop offset="0" stop-color="#20a85d"/>
      <stop offset=".9" stop-color="#0a452a"/>
    </radialGradient>
    <radialGradient id="radial-gradient5" cx="11.8" cy="255.7" fx="11.8" fy="255.7" r="5.8" gradientTransform="translate(-4059.1 21) rotate(90) scale(14 -16.1)" gradientUnits="userSpaceOnUse">
      <stop offset=".6" stop-color="#32a763" stop-opacity="0"/>
      <stop offset="1" stop-color="#a4d5a8"/>
    </radialGradient>
  </defs>
  <g class="st2">
    <g>
      <path class="st4" d="M40.7,78.5c0-17.7,14.3-32,32-32h177.5v188.1c0,11.8-9.6,21.3-21.3,21.3H84.4c-24.1,0-43.6-19.5-43.6-43.6V78.5h0Z"/>
      <path class="st3" d="M40.7,78.5c0-17.7,14.3-32,32-32h177.5v188.1c0,11.8-9.6,21.3-21.3,21.3H84.4c-24.1,0-43.6-19.5-43.6-43.6V78.5h0Z"/>
      <path class="st11" d="M40.7,119.3c0-17.7,14.3-32,32-32h101.8-7.4c-11.9-.3-21.7,9.3-21.7,21.2v39c0,11.8-9.6,21.3-21.3,21.3h-39.8c-24.1,0-43.6,19.5-43.6,43.6v-93.1Z"/>
      <path class="st6" d="M40.7,119.3c0-17.7,14.3-32,32-32h101.8-7.4c-11.9-.3-21.7,9.3-21.7,21.2v39c0,11.8-9.6,21.3-21.3,21.3h-39.8c-24.1,0-43.6,19.5-43.6,43.6v-93.1Z"/>
      <path class="st0" d="M40.7,42.9C40.7,19.2,59.9,0,83.6,0h85.1v87.3h-87.3c-22.5,0-40.7,18.2-40.7,40.7V42.9Z"/>
      <path class="st8" d="M40.7,42.9C40.7,19.2,59.9,0,83.6,0h85.1v87.3h-87.3c-22.5,0-40.7,18.2-40.7,40.7V42.9Z"/>
      <path class="st7" d="M40.7,42.9C40.7,19.2,59.9,0,83.6,0h85.1v87.3h-87.3c-22.5,0-40.7,18.2-40.7,40.7V42.9Z"/>
      <path class="st10" d="M166.8,0h62.1c11.8,0,21.3,9.6,21.3,21.3v44.6c0,11.8-9.6,21.3-21.3,21.3h-62.1c-11.8,0-21.3-9.6-21.3-21.3V21.3c0-11.8,9.6-21.3,21.3-21.3Z"/>
      <path class="st9" d="M98.9,116.4H29.1c-12.9,0-23.3,10.4-23.3,23.3v69.8c0,12.9,10.4,23.3,23.3,23.3h69.8c12.9,0,23.3-10.4,23.3-23.3v-69.8c0-12.9-10.4-23.3-23.3-23.3Z"/>
      <path class="st5" d="M98.9,116.4H29.1c-12.9,0-23.3,10.4-23.3,23.3v69.8c0,12.9,10.4,23.3,23.3,23.3h69.8c12.9,0,23.3-10.4,23.3-23.3v-69.8c0-12.9-10.4-23.3-23.3-23.3Z"/>
      <path class="st1" d="M96.1,209.5h-18.8l-11.8-22.3c-.4-.8-.7-1.4-1-1.9-.2-.5-.4-1-.6-1.7h-.2c-.3.8-.6,1.4-.8,1.9-.3.5-.6,1.1-.9,1.8l-12.2,22.1h-17.7l21.3-35-19.8-34.9h18.6l10.5,19.9c.4.8.8,1.5,1.1,2.1.3.6.6,1.3,1,2.1h.2c.5-.9.8-1.7,1.1-2.2.3-.6.7-1.3,1.2-2.2l10.9-19.7h17.7l-20.1,34.3s20.7,35.5,20.7,35.5Z"/>
    </g>
  </g>
</svg>