<?xml version="1.0" encoding="UTF-8"?>
<svg id="Layer_1" xmlns="http://www.w3.org/2000/svg" version="1.1" xmlns:xlink="http://www.w3.org/1999/xlink" viewBox="0 0 256 256">
  <!-- Generator: Adobe Illustrator 29.6.1, SVG Export Plug-In . SVG Version: 2.1.1 Build 9)  -->
  <defs>
    <style>
      .st0 {
        fill: url(#radial-gradient4);
      }

      .st0, .st1 {
        fill-opacity: .5;
      }

      .st2 {
        fill: url(#radial-gradient2);
      }

      .st2, .st3 {
        fill-opacity: .7;
      }

      .st4 {
        fill: #fff;
      }

      .st5 {
        mask: url(#mask);
      }

      .st6 {
        fill: url(#radial-gradient5);
      }

      .st7 {
        fill: url(#radial-gradient1);
      }

      .st1 {
        fill: url(#radial-gradient6);
      }

      .st8 {
        fill: url(#radial-gradient);
        fill-opacity: .6;
      }

      .st9 {
        fill: url(#linear-gradient1);
        fill-opacity: .8;
      }

      .st3 {
        fill: url(#radial-gradient3);
      }

      .st10 {
        fill: url(#linear-gradient);
      }
    </style>
    <mask id="mask" x="-8.5" y="-8.5" width="272.9" height="272.9" maskUnits="userSpaceOnUse">
      <g id="cm">
        <path class="st4" d="M264.5-8.5H-8.5v272.9h272.9V-8.5Z"/>
      </g>
    </mask>
    <linearGradient id="linear-gradient" x1="223.7" y1="142.5" x2="72.7" y2="21.4" gradientTransform="translate(0 258) scale(1 -1)" gradientUnits="userSpaceOnUse">
      <stop offset=".7" stop-color="#3c56a6"/>
      <stop offset="1" stop-color="#223972"/>
    </linearGradient>
    <radialGradient id="radial-gradient" cx="-755.6" cy="675.2" fx="-755.6" fy="675.2" r="11.4" gradientTransform="translate(-12518.1 22295.2) rotate(50.3) scale(11.8 -35.4)" gradientUnits="userSpaceOnUse">
      <stop offset=".2" stop-color="#223972"/>
      <stop offset=".4" stop-color="#223972" stop-opacity=".1"/>
    </radialGradient>
    <radialGradient id="radial-gradient1" cx="-834" cy="705.8" fx="-834" fy="705.8" r="11.4" gradientTransform="translate(-30241.4 18890.3) rotate(119.6) scale(37.8 -24.3)" gradientUnits="userSpaceOnUse">
      <stop offset=".2" stop-color="#48bcec"/>
      <stop offset=".5" stop-color="#4d87c7"/>
    </radialGradient>
    <radialGradient id="radial-gradient2" cx="-697.4" cy="680.5" fx="-697.4" fy="680.5" r="11.4" gradientTransform="translate(-1942.7 8642.6) rotate(43.4) scale(6.3 -11.2)" gradientUnits="userSpaceOnUse">
      <stop offset=".1" stop-color="#304da1"/>
      <stop offset="1" stop-color="#3462ae" stop-opacity="0"/>
    </radialGradient>
    <radialGradient id="radial-gradient3" cx="-763.6" cy="665.1" fx="-763.6" fy="665.1" r="11.4" gradientTransform="translate(3013.8 17490.2) rotate(28.9) scale(14.2 -20.8)" gradientUnits="userSpaceOnUse">
      <stop offset=".7" stop-color="#3462ae" stop-opacity="0"/>
      <stop offset="1" stop-color="#304da1"/>
    </radialGradient>
    <radialGradient id="radial-gradient4" cx="-861.8" cy="639.1" fx="-861.8" fy="639.1" r="11.4" gradientTransform="translate(3497.9 -22458) rotate(-111.1) scale(23 -17.6)" gradientUnits="userSpaceOnUse">
      <stop offset=".6" stop-color="#4b9fd8" stop-opacity="0"/>
      <stop offset=".8" stop-color="#7aafde"/>
    </radialGradient>
    <radialGradient id="radial-gradient5" cx="-836" cy="696.5" fx="-836" fy="696.5" r="11.4" gradientTransform="translate(-30818.4 5705.3) rotate(126.6) scale(27.6 -30.8)" gradientUnits="userSpaceOnUse">
      <stop offset="0" stop-color="#a1dcee"/>
      <stop offset=".2" stop-color="#5ecbed"/>
      <stop offset=".6" stop-color="#40baeb"/>
      <stop offset=".8" stop-color="#3dace2"/>
    </radialGradient>
    <linearGradient id="linear-gradient1" x1="99.3" y1="145.6" x2="14.3" y2="145.6" gradientTransform="translate(0 258) scale(1 -1)" gradientUnits="userSpaceOnUse">
      <stop offset=".1" stop-color="#3ac6f4" stop-opacity="0"/>
      <stop offset="1" stop-color="#96daf8"/>
    </linearGradient>
    <radialGradient id="radial-gradient6" cx="-850" cy="606" fx="-850" fy="606" r="11.4" gradientTransform="translate(7804.2 -18088.7) rotate(-87.7) scale(21.7 -11.5)" gradientUnits="userSpaceOnUse">
      <stop offset=".7" stop-color="#96daf8" stop-opacity="0"/>
      <stop offset=".9" stop-color="#96daf8"/>
    </radialGradient>
  </defs>
  <g class="st5">
    <g>
      <path class="st10" d="M241.7,130.2V48.9c-115.4,45.1-157.5,79.5-146.1,188.1.6,5.4,3.8,10.2,8.7,12.5,9.1,4.2,17.3,6.5,23.7,6.5,32.5,0,113.7-60.7,113.7-125.8h0Z"/>
      <path class="st8" d="M241.7,130.2V48.9c-115.4,45.1-157.5,79.5-146.1,188.1.6,5.4,3.8,10.2,8.7,12.5,9.1,4.2,17.3,6.5,23.7,6.5,32.5,0,113.7-60.7,113.7-125.8h0Z"/>
      <path class="st7" d="M128,0C149.9,0,193.8,11.1,220.2,18.3c2.5.7,4.8,1.3,6.9,1.9,8.8,2.5,14.6,10.7,14.6,19.8v13.4c-2.6,59.9-21.8,77.3-75.4,120.4-7,6.2-14.3,12.1-21.6,18.2-10.5,8.6-21.3,17.4-32,27.6-4.1,3.9-6.6,9.4-6.6,15.4,0,9.1,5.8,16.9,13.9,19.9-2-.4-4-1-6.2-1.7-19.6-6.6-46-24.5-66.7-48.2C30.7,103.3,62.7,53.5,128,0h0Z"/>
      <path class="st2" d="M128,0C149.9,0,193.8,11.1,220.2,18.3c2.5.7,4.8,1.3,6.9,1.9,8.8,2.5,14.6,10.7,14.6,19.8v13.4c-2.6,59.9-21.8,77.3-75.4,120.4-7,6.2-14.3,12.1-21.6,18.2-10.5,8.6-21.3,17.4-32,27.6-4.1,3.9-6.6,9.4-6.6,15.4,0,9.1,5.8,16.9,13.9,19.9-2-.4-4-1-6.2-1.7-19.6-6.6-46-24.5-66.7-48.2C30.7,103.3,62.7,53.5,128,0h0Z"/>
      <path class="st3" d="M128,0C149.9,0,193.8,11.1,220.2,18.3c2.5.7,4.8,1.3,6.9,1.9,8.8,2.5,14.6,10.7,14.6,19.8v13.4c-2.6,59.9-21.8,77.3-75.4,120.4-7,6.2-14.3,12.1-21.6,18.2-10.5,8.6-21.3,17.4-32,27.6-4.1,3.9-6.6,9.4-6.6,15.4,0,9.1,5.8,16.9,13.9,19.9-2-.4-4-1-6.2-1.7-19.6-6.6-46-24.5-66.7-48.2C30.7,103.3,62.7,53.5,128,0h0Z"/>
      <path class="st0" d="M128,0C149.9,0,193.8,11.1,220.2,18.3c2.5.7,4.8,1.3,6.9,1.9,8.8,2.5,14.6,10.7,14.6,19.8v13.4c-2.6,59.9-21.8,77.3-75.4,120.4-7,6.2-14.3,12.1-21.6,18.2-10.5,8.6-21.3,17.4-32,27.6-4.1,3.9-6.6,9.4-6.6,15.4,0,9.1,5.8,16.9,13.9,19.9-2-.4-4-1-6.2-1.7-19.6-6.6-46-24.5-66.7-48.2C30.7,103.3,62.7,53.5,128,0h0Z"/>
      <path class="st6" d="M29.5,20C54.6,13,104.3,0,128,0s3.5,0,5.5.2c21.7,2.1,38.6,20.4,38.6,42.6s-2.2,15.6-6.1,22.1c-8.3,16.5-21.9,29.5-42.6,46.6-5.9,4.9-12.7,10.3-19.5,15.7-6.4,5.1-12.8,10.2-18.4,14.8-13.7,11.2-22,18.1-26.6,26.7-4.4,6.7-6.9,14.7-6.9,23.3,0,12.6,5.4,23.9,14.1,31.8.3.3.5.6.8.9,0,.1.1.2.2.3-2.8-2.4-5.5-4.8-8.2-7.4-24.4-23.3-44.7-54.8-44.7-87.3V40.3c0-9.4,6.1-17.7,15.2-20.2h0Z"/>
      <path class="st9" d="M29.5,20C54.6,13,104.3,0,128,0s3.5,0,5.5.2c21.7,2.1,38.6,20.4,38.6,42.6s-2.2,15.6-6.1,22.1c-8.3,16.5-21.9,29.5-42.6,46.6-5.9,4.9-12.7,10.3-19.5,15.7-6.4,5.1-12.8,10.2-18.4,14.8-13.7,11.2-22,18.1-26.6,26.7-4.4,6.7-6.9,14.7-6.9,23.3,0,12.6,5.4,23.9,14.1,31.8.3.3.5.6.8.9,0,.1.1.2.2.3-2.8-2.4-5.5-4.8-8.2-7.4-24.4-23.3-44.7-54.8-44.7-87.3V40.3c0-9.4,6.1-17.7,15.2-20.2h0Z"/>
      <path class="st1" d="M29.5,20C54.6,13,104.3,0,128,0s3.5,0,5.5.2c21.7,2.1,38.6,20.4,38.6,42.6s-2.2,15.6-6.1,22.1c-8.3,16.5-21.9,29.5-42.6,46.6-5.9,4.9-12.7,10.3-19.5,15.7-6.4,5.1-12.8,10.2-18.4,14.8-13.7,11.2-22,18.1-26.6,26.7-4.4,6.7-6.9,14.7-6.9,23.3,0,12.6,5.4,23.9,14.1,31.8.3.3.5.6.8.9,0,.1.1.2.2.3-2.8-2.4-5.5-4.8-8.2-7.4-24.4-23.3-44.7-54.8-44.7-87.3V40.3c0-9.4,6.1-17.7,15.2-20.2h0Z"/>
    </g>
  </g>
</svg>