<?xml version="1.0" encoding="UTF-8"?>
<svg id="Layer_1" xmlns="http://www.w3.org/2000/svg" version="1.1" xmlns:xlink="http://www.w3.org/1999/xlink" viewBox="0 0 256 256">
  <!-- Generator: Adobe Illustrator 29.6.1, SVG Export Plug-In . SVG Version: 2.1.1 Build 9)  -->
  <defs>
    <style>
      .st0 {
        fill: #fff;
      }

      .st1 {
        mask: url(#mask);
      }

      .st2 {
        fill: url(#radial-gradient);
      }

      .st3 {
        fill: url(#radial-gradient2);
      }

      .st3, .st4 {
        fill-opacity: .4;
      }

      .st5 {
        fill: url(#radial-gradient1);
      }

      .st6 {
        fill: url(#radial-gradient4);
        fill-opacity: .6;
      }

      .st7 {
        fill: url(#radial-gradient7);
      }

      .st7, .st8 {
        fill-opacity: .9;
      }

      .st9 {
        fill: url(#radial-gradient3);
      }

      .st8 {
        fill: url(#radial-gradient5);
      }

      .st10 {
        fill: url(#linear-gradient);
      }

      .st4 {
        fill: url(#radial-gradient6);
      }
    </style>
    <mask id="mask" x="-1.3" y="-2.5" width="258.7" height="258.7" maskUnits="userSpaceOnUse">
      <g id="j">
        <path class="st0" d="M257.3-2.5H-1.3v258.7h258.7V-2.5Z"/>
      </g>
    </mask>
    <radialGradient id="radial-gradient" cx="-697.9" cy="682.4" fx="-697.9" fy="682.4" r="10.8" gradientTransform="translate(-3153.1 9518.1) rotate(50.2) scale(7.5 -12.4)" gradientUnits="userSpaceOnUse">
      <stop offset="0" stop-color="#4894fe"/>
      <stop offset=".7" stop-color="#0934b3"/>
    </radialGradient>
    <radialGradient id="radial-gradient1" cx="-830.1" cy="700.6" fx="-830.1" fy="700.6" r="10.8" gradientTransform="translate(-29907.3 9231.8) rotate(130.9) scale(32.2 -23.9)" gradientUnits="userSpaceOnUse">
      <stop offset=".2" stop-color="#23c0fe"/>
      <stop offset=".5" stop-color="#1c91ff"/>
    </radialGradient>
    <radialGradient id="radial-gradient2" cx="-969.9" cy="645.1" fx="-969.9" fy="645.1" r="10.8" gradientTransform="translate(1409.2 -11399.7) rotate(-140) scale(6.5 -15)" gradientUnits="userSpaceOnUse">
      <stop offset="0" stop-color="#fff"/>
      <stop offset=".7" stop-color="#adc0ff" stop-opacity="0"/>
    </radialGradient>
    <radialGradient id="radial-gradient3" cx="-966.6" cy="641.9" fx="-966.6" fy="641.9" r="10.8" gradientTransform="translate(-663.3 -9928.5) rotate(-139.8) scale(7.4 -11.2)" gradientUnits="userSpaceOnUse">
      <stop offset="0" stop-color="#033acc"/>
      <stop offset="1" stop-color="#368eff" stop-opacity="0"/>
    </radialGradient>
    <radialGradient id="radial-gradient4" cx="-771.8" cy="692.1" fx="-771.8" fy="692.1" r="10.8" gradientTransform="translate(-6076.7 16307.8) rotate(66.6) scale(16.2 -17.5)" gradientUnits="userSpaceOnUse">
      <stop offset=".6" stop-color="#3464e3" stop-opacity="0"/>
      <stop offset="1" stop-color="#033acc"/>
    </radialGradient>
    <radialGradient id="radial-gradient5" cx="-836.6" cy="684.4" fx="-836.6" fy="684.4" r="10.8" gradientTransform="translate(-31914.7 -3963.2) rotate(135) scale(23.8 -37.3)" gradientUnits="userSpaceOnUse">
      <stop offset="0" stop-color="#4bfde8"/>
      <stop offset=".5" stop-color="#4bfde8" stop-opacity="0"/>
    </radialGradient>
    <linearGradient id="linear-gradient" x1="163.5" y1="20.9" x2="163.5" y2="136.9" gradientTransform="translate(0 234) scale(1 -1)" gradientUnits="userSpaceOnUse">
      <stop offset="0" stop-color="#0086ff"/>
      <stop offset=".5" stop-color="#0bf"/>
    </linearGradient>
    <radialGradient id="radial-gradient6" cx="-722.6" cy="649.7" fx="-722.6" fy="649.7" r="10.8" gradientTransform="translate(2455.7 15321.7) rotate(21.6) scale(10.8 -20.4)" gradientUnits="userSpaceOnUse">
      <stop offset="0" stop-color="#fff"/>
      <stop offset=".8" stop-color="#fff" stop-opacity="0"/>
    </radialGradient>
    <radialGradient id="radial-gradient7" cx="-850.5" cy="728.7" fx="-850.5" fy="728.7" r="10.8" gradientTransform="translate(-16337.1 108.7) rotate(139.2) scale(14.8 -14.8)" gradientUnits="userSpaceOnUse">
      <stop offset="0" stop-color="#4bfde8"/>
      <stop offset=".6" stop-color="#4bfde8" stop-opacity="0"/>
    </radialGradient>
  </defs>
  <g class="st1">
    <g>
      <path class="st2" d="M70.7,68.9c-39.1,0-68.4,32-70.6,67.7,1.4,7.7,5.8,22.9,12.9,22.1,8.8-1,30.9,0,49.7-34.1,13.8-24.9,42.1-55.7,8-55.7h0Z"/>
      <path class="st5" d="M61.7,82.3c-13.2,20.8-30.9,50.7-36.8,60.1-7.1,11.2-25.9,6.4-24.4-9.6-.2,1.3-.3,2.6-.4,3.9-2.6,41.6,30.4,76.2,71.5,76.2s153.2-56.4,142.3-112.9c-11.5-33.2-43.9-57-80.6-57s-60.2,21.1-71.7,39.4h0Z"/>
      <path class="st3" d="M61.7,82.3c-13.2,20.8-30.9,50.7-36.8,60.1-7.1,11.2-25.9,6.4-24.4-9.6-.2,1.3-.3,2.6-.4,3.9-2.6,41.6,30.4,76.2,71.5,76.2s153.2-56.4,142.3-112.9c-11.5-33.2-43.9-57-80.6-57s-60.2,21.1-71.7,39.4h0Z"/>
      <path class="st9" d="M61.7,82.3c-13.2,20.8-30.9,50.7-36.8,60.1-7.1,11.2-25.9,6.4-24.4-9.6-.2,1.3-.3,2.6-.4,3.9-2.6,41.6,30.4,76.2,71.5,76.2s153.2-56.4,142.3-112.9c-11.5-33.2-43.9-57-80.6-57s-60.2,21.1-71.7,39.4h0Z"/>
      <path class="st6" d="M61.7,82.3c-13.2,20.8-30.9,50.7-36.8,60.1-7.1,11.2-25.9,6.4-24.4-9.6-.2,1.3-.3,2.6-.4,3.9-2.6,41.6,30.4,76.2,71.5,76.2s153.2-56.4,142.3-112.9c-11.5-33.2-43.9-57-80.6-57s-60.2,21.1-71.7,39.4h0Z"/>
      <path class="st8" d="M61.7,82.3c-13.2,20.8-30.9,50.7-36.8,60.1-7.1,11.2-25.9,6.4-24.4-9.6-.2,1.3-.3,2.6-.4,3.9-2.6,41.6,30.4,76.2,71.5,76.2s153.2-56.4,142.3-112.9c-11.5-33.2-43.9-57-80.6-57s-60.2,21.1-71.7,39.4h0Z"/>
      <path class="st10" d="M71,212.9s108.1.2,126.4.2c33.3,0,58.6-27.2,58.6-58.9,0-31.7-25.8-58.7-58.6-58.7s-51.6,24.5-65.8,51.3c-16.6,31.4-37.8,65.7-60.6,66.1h0Z"/>
      <path class="st4" d="M71,212.9s108.1.2,126.4.2c33.3,0,58.6-27.2,58.6-58.9,0-31.7-25.8-58.7-58.6-58.7s-51.6,24.5-65.8,51.3c-16.6,31.4-37.8,65.7-60.6,66.1h0Z"/>
      <path class="st7" d="M71,212.9s108.1.2,126.4.2c33.3,0,58.6-27.2,58.6-58.9,0-31.7-25.8-58.7-58.6-58.7s-51.6,24.5-65.8,51.3c-16.6,31.4-37.8,65.7-60.6,66.1h0Z"/>
    </g>
  </g>
</svg>