<?xml version="1.0" encoding="UTF-8"?>
<svg id="Layer_1" xmlns="http://www.w3.org/2000/svg" version="1.1" xmlns:xlink="http://www.w3.org/1999/xlink" viewBox="0 0 256 256">
  <!-- Generator: Adobe Illustrator 29.6.1, SVG Export Plug-In . SVG Version: 2.1.1 Build 9)  -->
  <defs>
    <style>
      .st0 {
        fill: url(#radial-gradient1);
        fill-opacity: .4;
      }

      .st1 {
        mask: url(#mask-1);
      }

      .st2 {
        fill: #fff;
      }

      .st3 {
        mask: url(#mask);
      }

      .st4 {
        fill: url(#linear-gradient1);
      }

      .st5 {
        fill: url(#linear-gradient4);
      }

      .st5, .st6 {
        fill-opacity: .2;
      }

      .st7 {
        fill: url(#radial-gradient);
      }

      .st8 {
        fill: url(#radial-gradient2);
      }

      .st8, .st9 {
        fill-opacity: .5;
      }

      .st6 {
        fill: url(#linear-gradient2);
      }

      .st10 {
        fill: url(#linear-gradient5);
      }

      .st11 {
        fill: url(#linear-gradient3);
      }

      .st12 {
        fill: url(#linear-gradient6);
      }

      .st13 {
        fill: url(#radial-gradient4);
      }

      .st9 {
        fill: url(#radial-gradient5);
      }

      .st14 {
        fill: url(#radial-gradient3);
      }

      .st15 {
        fill: url(#linear-gradient);
      }
    </style>
    <mask id="mask" x="0" y="-5.7" width="267.1" height="267.1" maskUnits="userSpaceOnUse">
      <g id="cq">
        <path class="st2" d="M267.1-5.7H0v267.1h267.1V-5.7Z"/>
      </g>
    </mask>
    <mask id="mask-1" x="0" y="-5.7" width="267.1" height="267.1" maskUnits="userSpaceOnUse">
      <g id="cp">
        <path class="st2" d="M267.1-5.7H0v267.1h267.1V-5.7Z"/>
      </g>
    </mask>
    <linearGradient id="linear-gradient" x1="25.4" y1="162" x2="167.9" y2="250.3" gradientTransform="translate(0 258) scale(1 -1)" gradientUnits="userSpaceOnUse">
      <stop offset="0" stop-color="#4ba1d9"/>
      <stop offset=".4" stop-color="#56caf1"/>
      <stop offset="1" stop-color="#beafd6"/>
    </linearGradient>
    <linearGradient id="linear-gradient1" x1="90.7" y1="109" x2="170.1" y2="235.9" gradientTransform="translate(0 258) scale(1 -1)" gradientUnits="userSpaceOnUse">
      <stop offset="0" stop-color="#3b60ad"/>
      <stop offset=".5" stop-color="#3e7bbf"/>
      <stop offset="1" stop-color="#7f83bf"/>
    </linearGradient>
    <linearGradient id="linear-gradient2" x1="159.8" y1="127.3" x2="71.7" y2="199.1" gradientTransform="translate(0 258) scale(1 -1)" gradientUnits="userSpaceOnUse">
      <stop offset=".2" stop-color="#5981c2" stop-opacity="0"/>
      <stop offset=".8" stop-color="#23449c"/>
    </linearGradient>
    <linearGradient id="linear-gradient3" x1="114.3" y1="112.4" x2="253.4" y2="201.4" gradientTransform="translate(0 258) scale(1 -1)" gradientUnits="userSpaceOnUse">
      <stop offset="0" stop-color="#25489e"/>
      <stop offset=".5" stop-color="#395aa9"/>
      <stop offset="1" stop-color="#5e489d"/>
    </linearGradient>
    <linearGradient id="linear-gradient4" x1="188" y1="104.2" x2="103.4" y2="177.3" gradientTransform="translate(0 258) scale(1 -1)" gradientUnits="userSpaceOnUse">
      <stop offset="0" stop-color="#2c4fa2" stop-opacity="0"/>
      <stop offset=".7" stop-color="#252b65"/>
    </linearGradient>
    <radialGradient id="radial-gradient" cx="-856.3" cy="622.8" fx="-856.3" fy="622.8" r="11.1" gradientTransform="translate(11256.7 -14118) rotate(-90) scale(16.5 -17.9)" gradientUnits="userSpaceOnUse">
      <stop offset=".6" stop-color="#4565af" stop-opacity="0"/>
      <stop offset="1" stop-color="#263170"/>
    </radialGradient>
    <linearGradient id="linear-gradient5" x1="256" y1="88.8" x2="132.6" y2="88.8" gradientTransform="translate(0 258) scale(1 -1)" gradientUnits="userSpaceOnUse">
      <stop offset="0" stop-color="#60c0ed"/>
      <stop offset=".2" stop-color="#47a9df"/>
    </linearGradient>
    <radialGradient id="radial-gradient1" cx="-807" cy="523" fx="-807" fy="523" r="11.1" gradientTransform="translate(6811.5 -1197.5) rotate(-45) scale(7.1 -7.1)" gradientUnits="userSpaceOnUse">
      <stop offset=".3" stop-color="#3464af"/>
      <stop offset=".9" stop-color="#407cc0" stop-opacity="0"/>
    </radialGradient>
    <radialGradient id="radial-gradient2" cx="-834.2" cy="623.3" fx="-834.2" fy="623.3" r="11.1" gradientTransform="translate(22944.1 -7432.5) rotate(-52.7) scale(24 -21.7)" gradientUnits="userSpaceOnUse">
      <stop offset=".7" stop-color="#dcaace" stop-opacity="0"/>
      <stop offset="1" stop-color="#dcaace"/>
    </radialGradient>
    <radialGradient id="radial-gradient3" cx="-829.3" cy="698.2" fx="-829.3" fy="698.2" r="11.1" gradientTransform="translate(-24847 -3686.4) rotate(123.3) scale(12.7 -32.9)" gradientUnits="userSpaceOnUse">
      <stop offset="0" stop-color="#68cdee"/>
      <stop offset=".7" stop-color="#4abfee"/>
    </radialGradient>
    <linearGradient id="linear-gradient6" x1="-6.1" y1="88.8" x2="112.6" y2="88.9" gradientTransform="translate(0 258) scale(1 -1)" gradientUnits="userSpaceOnUse">
      <stop offset=".2" stop-color="#7ed2f1"/>
      <stop offset=".5" stop-color="#5fccf5" stop-opacity="0"/>
    </linearGradient>
    <radialGradient id="radial-gradient4" cx="-765.8" cy="681.1" fx="-765.8" fy="681.1" r="11.1" gradientTransform="translate(335.3 13608.7) rotate(46.9) scale(13.2 -13.2)" gradientUnits="userSpaceOnUse">
      <stop offset="0" stop-color="#4787c7"/>
      <stop offset=".9" stop-color="#2b479e"/>
    </radialGradient>
    <radialGradient id="radial-gradient5" cx="-748.8" cy="762.3" fx="-748.8" fy="762.3" r="11.1" gradientTransform="translate(-6099.7 5426.1) rotate(90) scale(7 -8.1)" gradientUnits="userSpaceOnUse">
      <stop offset=".6" stop-color="#439fd9" stop-opacity="0"/>
      <stop offset="1" stop-color="#80c2eb"/>
    </radialGradient>
  </defs>
  <g class="st3">
    <g class="st1">
      <g>
        <path class="st15" d="M180.8,28.2L24.6,127.2l-13.4-21.2v-18.3c0-6.6,3.4-12.8,8.9-16.5L110.9,12.4c13.8-9,31.6-9,45.5,0l24.4,15.8h0Z"/>
        <path class="st4" d="M154.9,11.5c.5.3.9.6,1.4.9l70.8,45.9L51.5,169.7l-26.9-42.5L153.5,45.3c12.2-7.8,12.7-25.2,1.5-33.8h0Z"/>
        <path class="st6" d="M154.9,11.5c.5.3.9.6,1.4.9l70.8,45.9L51.5,169.7l-26.9-42.5L153.5,45.3c12.2-7.8,12.7-25.2,1.5-33.8h0Z"/>
        <path class="st11" d="M121.5,190.9l-70.1-21.3,149-94.4c12.5-8,12.5-26.3,0-34.2l-.7-.4,1.9,1.2,45.3,29.4c5.6,3.6,8.9,9.8,8.9,16.5v17.7l-134.4,85.6h0Z"/>
        <path class="st5" d="M121.5,190.9l-70.1-21.3,149-94.4c12.5-8,12.5-26.3,0-34.2l-.7-.4,1.9,1.2,45.3,29.4c5.6,3.6,8.9,9.8,8.9,16.5v17.7l-134.4,85.6h0Z"/>
        <path class="st7" d="M156.3,12.4c-13.8-9-31.6-9-45.5,0L20,71.3c-5.6,3.6-8.9,9.8-8.9,16.5v.9c.2,6.7,3.7,12.8,9.4,16.4l112.9,71.1,113.1-71c5.9-3.7,9.4-10.1,9.4-17.1v17.3-17.7c0-6.6-3.4-12.8-8.9-16.5L156.3,12.4h0Z"/>
        <path class="st10" d="M113.5,250.3h101.4c22.7,0,41.1-18.4,41.1-41.1v-121.2c0,6.9-3.6,13.4-9.4,17.1l-148.7,93.4c-8,5-12.9,13.8-12.9,23.3,0,15.8,12.8,28.5,28.5,28.5h0Z"/>
        <path class="st0" d="M113.5,250.3h101.4c22.7,0,41.1-18.4,41.1-41.1v-121.2c0,6.9-3.6,13.4-9.4,17.1l-148.7,93.4c-8,5-12.9,13.8-12.9,23.3,0,15.8,12.8,28.5,28.5,28.5h0Z"/>
        <path class="st8" d="M113.5,250.3h101.4c22.7,0,41.1-18.4,41.1-41.1v-121.2c0,6.9-3.6,13.4-9.4,17.1l-148.7,93.4c-8,5-12.9,13.8-12.9,23.3,0,15.8,12.8,28.5,28.5,28.5h0Z"/>
        <path class="st14" d="M154.2,250.3H52.2c-22.7,0-41.1-18.4-41.1-41.1v-121.3c0,6.9,3.6,13.4,9.4,17.1l148.5,93.6c8.1,5.1,13.1,14.1,13.1,23.7,0,15.5-12.5,28-28,28h0Z"/>
        <path class="st12" d="M154.2,250.3H52.2c-22.7,0-41.1-18.4-41.1-41.1v-121.3c0,6.9,3.6,13.4,9.4,17.1l148.5,93.6c8.1,5.1,13.1,14.1,13.1,23.7,0,15.5-12.5,28-28,28h0Z"/>
        <path class="st13" d="M89,116.8H22.3C10,116.8,0,126.7,0,139v66.8C0,218.1,10,228.1,22.3,228.1h66.8c12.3,0,22.3-10,22.3-22.3v-66.8c0-12.3-10-22.3-22.3-22.3Z"/>
        <path class="st9" d="M89,116.8H22.3C10,116.8,0,126.7,0,139v66.8C0,218.1,10,228.1,22.3,228.1h66.8c12.3,0,22.3-10,22.3-22.3v-66.8c0-12.3-10-22.3-22.3-22.3Z"/>
        <path class="st2" d="M55.3,206.4c-9.8,0-17.8-3.1-24-9.2s-9.4-14.1-9.4-23.9,3.2-18.8,9.5-25.2c6.4-6.4,14.7-9.6,25-9.6s17.7,3.1,23.8,9.2c6.1,6.1,9.2,14.2,9.2,24.3s-3.2,18.6-9.5,25c-6.3,6.3-14.5,9.4-24.5,9.4h0ZM55.6,193.4c5.3,0,9.6-1.8,12.8-5.5,3.2-3.6,4.9-8.7,4.9-15.2s-1.6-12-4.7-15.8-7.4-5.6-12.6-5.6-9.8,1.9-13.1,5.8c-3.3,3.8-5,8.9-5,15.3s1.7,11.5,5,15.3c3.3,3.7,7.5,5.6,12.7,5.6Z"/>
      </g>
    </g>
  </g>
</svg>