<?xml version="1.0" encoding="UTF-8"?>
<svg id="Layer_1" xmlns="http://www.w3.org/2000/svg" version="1.1" xmlns:xlink="http://www.w3.org/1999/xlink" viewBox="0 0 256 256">
  <!-- Generator: Adobe Illustrator 29.6.1, SVG Export Plug-In . SVG Version: 2.1.1 Build 9)  -->
  <defs>
    <style>
      .st0 {
        fill: #fff;
      }

      .st1 {
        mask: url(#mask);
      }

      .st2 {
        fill: url(#linear-gradient1);
      }

      .st3 {
        fill: url(#radial-gradient);
      }

      .st4 {
        fill: url(#radial-gradient5);
      }

      .st5 {
        fill: url(#radial-gradient3);
        fill-opacity: .8;
      }

      .st6 {
        fill: url(#radial-gradient1);
        fill-opacity: .5;
      }

      .st7 {
        fill: url(#radial-gradient6);
      }

      .st8 {
        fill: url(#radial-gradient2);
      }

      .st9 {
        fill: url(#radial-gradient7);
        fill-opacity: .3;
      }

      .st10 {
        fill: url(#radial-gradient4);
      }

      .st11 {
        fill: url(#linear-gradient);
      }
    </style>
    <mask id="mask" x="0" y="-3.4" width="262.8" height="262.8" maskUnits="userSpaceOnUse">
      <g id="aj">
        <path class="st0" d="M262.8-3.4H0v262.8h262.8V-3.4Z"/>
      </g>
    </mask>
    <linearGradient id="linear-gradient" x1="191" y1="187" x2="38.4" y2="41" gradientTransform="translate(0 258) scale(1 -1)" gradientUnits="userSpaceOnUse">
      <stop offset="0" stop-color="#f47e4b"/>
      <stop offset="1" stop-color="#e6495c"/>
    </linearGradient>
    <radialGradient id="radial-gradient" cx="-1.6" cy="258.2" fx="-1.6" fy="258.2" r="5.5" gradientTransform="translate(-13904.8 -13908) rotate(135) scale(45.7 -76.9)" gradientUnits="userSpaceOnUse">
      <stop offset=".2" stop-color="#aa1e2e"/>
      <stop offset=".4" stop-color="#d12e27" stop-opacity=".4"/>
      <stop offset=".6" stop-color="#ef4423" stop-opacity="0"/>
    </radialGradient>
    <radialGradient id="radial-gradient1" cx="-.7" cy="255.9" fx="-.7" fy="255.9" r="5.5" gradientTransform="translate(8565.1 18370.5) rotate(-25.3) scale(43.3 -78.4)" gradientUnits="userSpaceOnUse">
      <stop offset=".4" stop-color="#ca78b1"/>
      <stop offset="1" stop-color="#e84224" stop-opacity="0"/>
    </radialGradient>
    <linearGradient id="linear-gradient1" x1="130.6" y1="135.2" x2="264.7" y2="234.5" gradientTransform="translate(0 258) scale(1 -1)" gradientUnits="userSpaceOnUse">
      <stop offset=".3" stop-color="#f36f35"/>
      <stop offset=".6" stop-color="#f89f5f"/>
    </linearGradient>
    <radialGradient id="radial-gradient2" cx="4.2" cy="256.4" fx="4.2" fy="256.4" r="5.5" gradientTransform="translate(-1485.7 7155) rotate(11.8) scale(29.4 -28)" gradientUnits="userSpaceOnUse">
      <stop offset=".8" stop-color="#f89f5f" stop-opacity="0"/>
      <stop offset=".9" stop-color="#ffce86"/>
    </radialGradient>
    <radialGradient id="radial-gradient3" cx="3.7" cy="254.2" fx="3.7" fy="254.2" r="5.5" gradientTransform="translate(3997.9 6228.7) rotate(-33.2) scale(29.7 -28.4)" gradientUnits="userSpaceOnUse">
      <stop offset=".3" stop-color="#e59ec5"/>
      <stop offset=".7" stop-color="#e59ec5" stop-opacity="0"/>
    </radialGradient>
    <radialGradient id="radial-gradient4" cx="2.1" cy="253.7" fx="2.1" fy="253.7" r="5.5" gradientTransform="translate(5591.3 5013.8) rotate(-48.9) scale(31.6 -28.9)" gradientUnits="userSpaceOnUse">
      <stop offset="0" stop-color="#cc7db4"/>
      <stop offset=".6" stop-color="#f89948"/>
      <stop offset=".9" stop-color="#fcc57a"/>
    </radialGradient>
    <radialGradient id="radial-gradient5" cx="-3.8" cy="259.1" fx="-3.8" fy="259.1" r="5.5" gradientTransform="translate(-9224.2 -1295.1) rotate(98.4) scale(16.1 -36.4)" gradientUnits="userSpaceOnUse">
      <stop offset=".1" stop-color="#f78d20"/>
      <stop offset=".5" stop-color="#f57e2d" stop-opacity="0"/>
    </radialGradient>
    <radialGradient id="radial-gradient6" cx="1.3" cy="256.6" fx="1.3" fy="256.6" r="5.5" gradientTransform="translate(-5159 5223) rotate(45) scale(28.3 -28.3)" gradientUnits="userSpaceOnUse">
      <stop offset="0" stop-color="#ee2541"/>
      <stop offset=".9" stop-color="#931a1d"/>
    </radialGradient>
    <radialGradient id="radial-gradient7" cx="5.8" cy="259.7" fx="5.8" fy="259.7" r="5.5" gradientTransform="translate(-4085.1 101) rotate(90) scale(14 -15.9)" gradientUnits="userSpaceOnUse">
      <stop offset=".6" stop-color="#fbaf56" stop-opacity="0"/>
      <stop offset="1" stop-color="#fff2be"/>
    </radialGradient>
  </defs>
  <g class="st1">
    <g>
      <path class="st11" d="M131.4,252.6c68.8,0,124.6-55.8,124.6-124.6S200.2,3.4,131.4,3.4,6.9,59.2,6.9,128s55.8,124.6,124.6,124.6Z"/>
      <path class="st3" d="M131.4,252.6c68.8,0,124.6-55.8,124.6-124.6S200.2,3.4,131.4,3.4,6.9,59.2,6.9,128s55.8,124.6,124.6,124.6Z"/>
      <path class="st6" d="M131.4,252.6c68.8,0,124.6-55.8,124.6-124.6S200.2,3.4,131.4,3.4,6.9,59.2,6.9,128s55.8,124.6,124.6,124.6Z"/>
      <path class="st2" d="M131.4,3.4c68.8,0,124.6,55.8,124.6,124.6s-6.2,44.3-17,62.8l2-4.5c12.3-27.4-7.7-58.3-37.7-58.3h-49.6c-12.3,0-22.3-9.9-22.3-22.3v-49.7c0-30-31-50-58.4-37.7l-4,1.8C87.4,9.5,108.7,3.4,131.4,3.4h0Z"/>
      <path class="st8" d="M131.4,3.4c68.8,0,124.6,55.8,124.6,124.6s-6.2,44.3-17,62.8l2-4.5c12.3-27.4-7.7-58.3-37.7-58.3h-49.6c-12.3,0-22.3-9.9-22.3-22.3v-49.7c0-30-31-50-58.4-37.7l-4,1.8C87.4,9.5,108.7,3.4,131.4,3.4h0Z"/>
      <path class="st5" d="M131.4,3.4c68.8,0,124.6,55.8,124.6,124.6s-6.2,44.3-17,62.8l2-4.5c12.3-27.4-7.7-58.3-37.7-58.3h-49.6c-12.3,0-22.3-9.9-22.3-22.3v-49.7c0-30-31-50-58.4-37.7l-4,1.8C87.4,9.5,108.7,3.4,131.4,3.4h0Z"/>
      <path class="st10" d="M131.4,3.4c68.8,0,124.6,55.8,124.6,124.6s-6.2,44.3-17,62.8l2-4.5c12.3-27.4-7.7-58.3-37.7-58.3h-49.6c-12.3,0-22.3-9.9-22.3-22.3v-49.7c0-30-31-50-58.4-37.7l-4,1.8C87.4,9.5,108.7,3.4,131.4,3.4h0Z"/>
      <path class="st4" d="M131.4,3.4c68.8,0,124.6,55.8,124.6,124.6s-6.2,44.3-17,62.8l2-4.5c12.3-27.4-7.7-58.3-37.7-58.3h-49.6c-12.3,0-22.3-9.9-22.3-22.3v-49.7c0-30-31-50-58.4-37.7l-4,1.8C87.4,9.5,108.7,3.4,131.4,3.4h0Z"/>
      <path class="st7" d="M87.6,117H21.9c-12.1,0-21.9,9.8-21.9,21.9v65.7c0,12.1,9.8,21.9,21.9,21.9h65.7c12.1,0,21.9-9.8,21.9-21.9v-65.7c0-12.1-9.8-21.9-21.9-21.9Z"/>
      <path class="st9" d="M87.6,117H21.9c-12.1,0-21.9,9.8-21.9,21.9v65.7c0,12.1,9.8,21.9,21.9,21.9h65.7c12.1,0,21.9-9.8,21.9-21.9v-65.7c0-12.1-9.8-21.9-21.9-21.9Z"/>
      <path class="st0" d="M47.3,183.3v21.4h-14.8v-65.7h22.8c8.2,0,14.4,1.8,18.7,5.4,4.3,3.6,6.4,8.9,6.4,15.9s-2.4,12.9-7.2,17c-4.8,4.1-11.2,6.1-19.3,6.1,0,0-6.6,0-6.6,0ZM47.3,150.3v21.6h6.2c3.7,0,6.5-1,8.5-2.9,2-1.9,3-4.7,3-8.3s-1-5.9-2.9-7.7c-1.9-1.8-4.7-2.7-8.3-2.7h-6.4,0Z"/>
    </g>
  </g>
</svg>